<?xml version="1.0" encoding="UTF-8"?>
<svg xmlns="http://www.w3.org/2000/svg" xmlns:xlink="http://www.w3.org/1999/xlink" width="2500" height="1500" viewBox="0 0 2500 1500">
<defs>
<clipPath id="clip-0">

</clipPath>
<clipPath id="clip-1">
<path clip-rule="nonzero" d="M 2072.25 680.140625 C 2072.210938 680.109375 2068.449219 677.03125 2061.058594 672.3125 L 2062.921875 669.386719 C 2070.519531 674.234375 2074.300781 677.328125 2074.449219 677.460938 Z M 2072.25 680.140625 "/>
</clipPath>
<clipPath id="clip-2">
<path clip-rule="nonzero" d="M 2072.25 680.140625 C 2072.210938 680.109375 2068.449219 677.03125 2061.058594 672.3125 L 2062.921875 669.386719 C 2070.519531 674.234375 2074.300781 677.328125 2074.449219 677.460938 L 2072.25 680.140625 "/>
</clipPath>
<linearGradient id="linear-pattern-0" gradientUnits="userSpaceOnUse" x1="0.993183" y1="0" x2="0.999999" y2="0" gradientTransform="matrix(1964.21, 0, 0, 1964.21, 110.241, 674.763)">
<stop offset="0" stop-color="rgb(23.765564%, 23.492432%, 23.950195%)" stop-opacity="1"/>
<stop offset="0.5" stop-color="rgb(23.739624%, 23.446655%, 23.899841%)" stop-opacity="1"/>
<stop offset="1" stop-color="rgb(23.684692%, 23.355103%, 23.797607%)" stop-opacity="1"/>
</linearGradient>
<clipPath id="clip-3">
<path clip-rule="nonzero" d="M 208 612 L 2039 612 L 2039 888 L 208 888 Z M 208 612 "/>
</clipPath>
<clipPath id="clip-4">
<path clip-rule="nonzero" d="M 584.039062 884.328125 C 576.472656 884.328125 568.972656 884.261719 561.441406 884.121094 L 561.40625 887.59375 C 568.902344 887.730469 576.472656 887.800781 584.039062 887.800781 L 589.039062 887.800781 L 589.039062 884.328125 Z M 644.132812 882.90625 C 634.933594 883.359375 625.664062 883.671875 616.601562 883.914062 L 616.671875 887.386719 C 625.769531 887.140625 635.035156 886.828125 644.308594 886.378906 Z M 506.414062 881.726562 L 506.171875 885.199219 C 515.199219 885.820312 524.503906 886.34375 533.773438 886.726562 L 533.910156 883.289062 C 524.675781 882.871094 515.40625 882.351562 506.414062 881.726562 Z M 699.121094 879.367188 C 689.957031 880.132812 680.6875 880.824219 671.664062 881.414062 L 671.871094 884.851562 C 680.933594 884.261719 690.199219 883.601562 699.4375 882.839844 Z M 451.5625 876.453125 L 451.113281 879.886719 C 460.105469 881.03125 469.371094 882.039062 478.609375 882.941406 L 478.953125 879.472656 C 469.71875 878.605469 460.519531 877.5625 451.5625 876.453125 Z M 754.007812 873.882812 C 744.84375 874.960938 735.714844 875.933594 726.582031 876.867188 L 726.929688 880.304688 C 736.0625 879.402344 745.226562 878.394531 754.390625 877.355469 Z M 397.164062 867.914062 L 396.503906 871.316406 C 405.425781 873.015625 414.589844 874.613281 423.757812 876.035156 L 424.277344 872.597656 C 415.183594 871.175781 406.050781 869.578125 397.164062 867.914062 Z M 808.789062 866.664062 C 799.695312 868.019531 790.566406 869.265625 781.433594 870.480469 L 781.886719 873.917969 C 791.015625 872.738281 800.179688 871.453125 809.3125 870.101562 Z M 863.328125 857.917969 C 854.269531 859.515625 845.207031 861.042969 836.113281 862.5 L 836.667969 865.902344 C 845.761719 864.441406 854.859375 862.917969 863.917969 861.355469 Z M 343.460938 855.695312 L 342.589844 859.0625 C 351.375 861.386719 360.398438 863.609375 369.425781 865.65625 L 370.191406 862.292969 C 361.234375 860.242188 352.242188 858.023438 343.460938 855.695312 Z M 917.589844 847.855469 C 908.566406 849.621094 899.539062 851.359375 890.511719 853.058594 L 891.136719 856.460938 C 900.199219 854.761719 909.222656 853.023438 918.25 851.253906 Z M 290.898438 839.523438 L 289.71875 842.785156 C 298.292969 845.804688 307.109375 848.722656 315.996094 851.464844 L 317.003906 848.132812 C 308.1875 845.425781 299.402344 842.507812 290.898438 839.523438 Z M 971.539062 836.539062 C 962.582031 838.515625 953.589844 840.425781 944.597656 842.335938 L 945.292969 845.738281 C 954.320312 843.828125 963.3125 841.882812 972.269531 839.90625 Z M 1025.171875 824.148438 C 1016.25 826.300781 1007.328125 828.382812 998.375 830.464844 L 999.171875 833.832031 C 1008.128906 831.785156 1017.050781 829.667969 1025.96875 827.515625 Z M 239.867188 819.011719 L 238.410156 822.171875 C 246.707031 825.953125 255.28125 829.597656 263.855469 833.03125 L 265.140625 829.804688 C 256.597656 826.40625 248.09375 822.761719 239.867188 819.011719 Z M 1078.671875 810.753906 C 1069.789062 813.078125 1060.898438 815.332031 1051.941406 817.554688 L 1052.769531 820.921875 C 1061.730469 818.699219 1070.648438 816.40625 1079.539062 814.117188 Z M 208.414062 803.53125 L 208.414062 807.488281 C 210.113281 808.355469 211.816406 809.257812 213.515625 810.125 L 215.078125 807.035156 C 212.859375 805.894531 210.636719 804.746094 208.414062 803.53125 Z M 1131.960938 796.519531 C 1123.140625 798.949219 1114.261719 801.347656 1105.371094 803.738281 L 1106.238281 807.070312 C 1115.191406 804.710938 1124.050781 802.28125 1132.898438 799.851562 Z M 1185.078125 781.492188 C 1176.289062 784.027344 1167.441406 786.5625 1158.550781 789.09375 L 1159.488281 792.425781 C 1168.378906 789.894531 1177.230469 787.359375 1186.050781 784.824219 Z M 1237.980469 765.769531 C 1229.238281 768.445312 1220.421875 771.078125 1211.53125 773.71875 L 1212.539062 777.050781 C 1221.390625 774.414062 1230.210938 771.773438 1238.988281 769.101562 Z M 1290.71875 749.527344 C 1282 752.269531 1273.21875 754.976562 1264.371094 757.71875 L 1265.371094 761.050781 C 1274.230469 758.308594 1283.039062 755.566406 1291.761719 752.824219 Z M 1343.308594 732.800781 C 1334.628906 735.574219 1325.851562 738.386719 1317.03125 741.199219 L 1318.070312 744.53125 C 1326.929688 741.683594 1335.671875 738.871094 1344.351562 736.097656 Z M 1395.769531 715.722656 C 1387.160156 718.535156 1378.410156 721.414062 1369.558594 724.296875 L 1370.628906 727.59375 C 1379.488281 724.714844 1388.230469 721.832031 1396.878906 719.019531 Z M 1448.21875 698.402344 L 1422.011719 707.082031 L 1423.089844 710.378906 L 1449.300781 701.703125 Z M 1500.640625 681.085938 C 1492.070312 683.929688 1483.320312 686.8125 1474.429688 689.761719 L 1475.511719 693.023438 C 1484.429688 690.109375 1493.179688 687.230469 1501.71875 684.382812 Z M 1553.171875 664.042969 C 1544.660156 666.785156 1535.878906 669.597656 1526.890625 672.511719 L 1527.96875 675.808594 C 1536.960938 672.894531 1545.710938 670.082031 1554.25 667.375 Z M 1606.011719 647.765625 C 1597.5 650.265625 1588.679688 652.9375 1579.550781 655.75 L 1580.558594 659.082031 C 1589.691406 656.269531 1598.511719 653.597656 1606.980469 651.097656 Z M 2013.429688 644.46875 L 2012.148438 647.695312 C 2020.828125 651.167969 2029.261719 654.949219 2037.179688 658.90625 L 2038.738281 655.785156 C 2030.71875 651.792969 2022.21875 647.976562 2013.429688 644.46875 Z M 1659.398438 633.503906 C 1650.578125 635.585938 1641.558594 637.875 1632.601562 640.269531 L 1633.5 643.601562 C 1642.421875 641.207031 1651.421875 638.949219 1660.199219 636.867188 Z M 1960.730469 627.464844 L 1959.898438 630.828125 C 1968.859375 633.085938 1977.738281 635.617188 1986.320312 638.394531 L 1987.359375 635.0625 C 1978.71875 632.285156 1969.761719 629.753906 1960.730469 627.464844 Z M 1713.558594 622.5 C 1704.570312 624.027344 1695.429688 625.726562 1686.371094 627.566406 L 1687.070312 630.96875 C 1696.089844 629.128906 1705.191406 627.464844 1714.148438 625.9375 Z M 1906.371094 617.121094 L 1905.921875 620.554688 C 1915.050781 621.769531 1924.179688 623.226562 1933.070312 624.929688 L 1933.691406 621.527344 C 1924.769531 619.828125 1915.570312 618.335938 1906.371094 617.121094 Z M 1768.371094 615.28125 C 1759.308594 616.113281 1750.078125 617.191406 1740.878906 618.402344 L 1741.359375 621.839844 C 1750.488281 620.625 1759.691406 619.585938 1768.691406 618.714844 Z M 1851.238281 612.574219 L 1851.140625 616.042969 C 1860.371094 616.355469 1869.601562 616.878906 1878.601562 617.605469 L 1878.871094 614.171875 C 1869.808594 613.40625 1860.539062 612.886719 1851.238281 612.574219 Z M 1823.570312 612.296875 C 1814.511719 612.398438 1805.210938 612.710938 1795.941406 613.199219 L 1796.148438 616.667969 C 1805.351562 616.183594 1814.578125 615.871094 1823.640625 615.765625 Z M 1823.570312 612.296875 "/>
</clipPath>
<clipPath id="clip-5">
<path clip-rule="nonzero" d="M 584.039062 884.328125 C 576.472656 884.328125 568.972656 884.261719 561.441406 884.121094 L 561.40625 887.59375 C 568.902344 887.730469 576.472656 887.800781 584.039062 887.800781 L 589.039062 887.800781 L 589.039062 884.328125 Z M 644.132812 882.90625 C 634.933594 883.359375 625.664062 883.671875 616.601562 883.914062 L 616.671875 887.386719 C 625.769531 887.140625 635.035156 886.828125 644.308594 886.378906 Z M 506.414062 881.726562 L 506.171875 885.199219 C 515.199219 885.820312 524.503906 886.34375 533.773438 886.726562 L 533.910156 883.289062 C 524.675781 882.871094 515.40625 882.351562 506.414062 881.726562 Z M 699.121094 879.367188 C 689.957031 880.132812 680.6875 880.824219 671.664062 881.414062 L 671.871094 884.851562 C 680.933594 884.261719 690.199219 883.601562 699.4375 882.839844 Z M 451.5625 876.453125 L 451.113281 879.886719 C 460.105469 881.03125 469.371094 882.039062 478.609375 882.941406 L 478.953125 879.472656 C 469.71875 878.605469 460.519531 877.5625 451.5625 876.453125 Z M 754.007812 873.882812 C 744.84375 874.960938 735.714844 875.933594 726.582031 876.867188 L 726.929688 880.304688 C 736.0625 879.402344 745.226562 878.394531 754.390625 877.355469 Z M 397.164062 867.914062 L 396.503906 871.316406 C 405.425781 873.015625 414.589844 874.613281 423.757812 876.035156 L 424.277344 872.597656 C 415.183594 871.175781 406.050781 869.578125 397.164062 867.914062 Z M 808.789062 866.664062 C 799.695312 868.019531 790.566406 869.265625 781.433594 870.480469 L 781.886719 873.917969 C 791.015625 872.738281 800.179688 871.453125 809.3125 870.101562 Z M 863.328125 857.917969 C 854.269531 859.515625 845.207031 861.042969 836.113281 862.5 L 836.667969 865.902344 C 845.761719 864.441406 854.859375 862.917969 863.917969 861.355469 Z M 343.460938 855.695312 L 342.589844 859.0625 C 351.375 861.386719 360.398438 863.609375 369.425781 865.65625 L 370.191406 862.292969 C 361.234375 860.242188 352.242188 858.023438 343.460938 855.695312 Z M 917.589844 847.855469 C 908.566406 849.621094 899.539062 851.359375 890.511719 853.058594 L 891.136719 856.460938 C 900.199219 854.761719 909.222656 853.023438 918.25 851.253906 Z M 290.898438 839.523438 L 289.71875 842.785156 C 298.292969 845.804688 307.109375 848.722656 315.996094 851.464844 L 317.003906 848.132812 C 308.1875 845.425781 299.402344 842.507812 290.898438 839.523438 Z M 971.539062 836.539062 C 962.582031 838.515625 953.589844 840.425781 944.597656 842.335938 L 945.292969 845.738281 C 954.320312 843.828125 963.3125 841.882812 972.269531 839.90625 Z M 1025.171875 824.148438 C 1016.25 826.300781 1007.328125 828.382812 998.375 830.464844 L 999.171875 833.832031 C 1008.128906 831.785156 1017.050781 829.667969 1025.96875 827.515625 Z M 239.867188 819.011719 L 238.410156 822.171875 C 246.707031 825.953125 255.28125 829.597656 263.855469 833.03125 L 265.140625 829.804688 C 256.597656 826.40625 248.09375 822.761719 239.867188 819.011719 Z M 1078.671875 810.753906 C 1069.789062 813.078125 1060.898438 815.332031 1051.941406 817.554688 L 1052.769531 820.921875 C 1061.730469 818.699219 1070.648438 816.40625 1079.539062 814.117188 Z M 208.414062 803.53125 L 208.414062 807.488281 C 210.113281 808.355469 211.816406 809.257812 213.515625 810.125 L 215.078125 807.035156 C 212.859375 805.894531 210.636719 804.746094 208.414062 803.53125 Z M 1131.960938 796.519531 C 1123.140625 798.949219 1114.261719 801.347656 1105.371094 803.738281 L 1106.238281 807.070312 C 1115.191406 804.710938 1124.050781 802.28125 1132.898438 799.851562 Z M 1185.078125 781.492188 C 1176.289062 784.027344 1167.441406 786.5625 1158.550781 789.09375 L 1159.488281 792.425781 C 1168.378906 789.894531 1177.230469 787.359375 1186.050781 784.824219 Z M 1237.980469 765.769531 C 1229.238281 768.445312 1220.421875 771.078125 1211.53125 773.71875 L 1212.539062 777.050781 C 1221.390625 774.414062 1230.210938 771.773438 1238.988281 769.101562 Z M 1290.71875 749.527344 C 1282 752.269531 1273.21875 754.976562 1264.371094 757.71875 L 1265.371094 761.050781 C 1274.230469 758.308594 1283.039062 755.566406 1291.761719 752.824219 Z M 1343.308594 732.800781 C 1334.628906 735.574219 1325.851562 738.386719 1317.03125 741.199219 L 1318.070312 744.53125 C 1326.929688 741.683594 1335.671875 738.871094 1344.351562 736.097656 Z M 1395.769531 715.722656 C 1387.160156 718.535156 1378.410156 721.414062 1369.558594 724.296875 L 1370.628906 727.59375 C 1379.488281 724.714844 1388.230469 721.832031 1396.878906 719.019531 Z M 1448.21875 698.402344 L 1422.011719 707.082031 L 1423.089844 710.378906 L 1449.300781 701.703125 Z M 1500.640625 681.085938 C 1492.070312 683.929688 1483.320312 686.8125 1474.429688 689.761719 L 1475.511719 693.023438 C 1484.429688 690.109375 1493.179688 687.230469 1501.71875 684.382812 Z M 1553.171875 664.042969 C 1544.660156 666.785156 1535.878906 669.597656 1526.890625 672.511719 L 1527.96875 675.808594 C 1536.960938 672.894531 1545.710938 670.082031 1554.25 667.375 Z M 1606.011719 647.765625 C 1597.5 650.265625 1588.679688 652.9375 1579.550781 655.75 L 1580.558594 659.082031 C 1589.691406 656.269531 1598.511719 653.597656 1606.980469 651.097656 Z M 2013.429688 644.46875 L 2012.148438 647.695312 C 2020.828125 651.167969 2029.261719 654.949219 2037.179688 658.90625 L 2038.738281 655.785156 C 2030.71875 651.792969 2022.21875 647.976562 2013.429688 644.46875 Z M 1659.398438 633.503906 C 1650.578125 635.585938 1641.558594 637.875 1632.601562 640.269531 L 1633.5 643.601562 C 1642.421875 641.207031 1651.421875 638.949219 1660.199219 636.867188 Z M 1960.730469 627.464844 L 1959.898438 630.828125 C 1968.859375 633.085938 1977.738281 635.617188 1986.320312 638.394531 L 1987.359375 635.0625 C 1978.71875 632.285156 1969.761719 629.753906 1960.730469 627.464844 Z M 1713.558594 622.5 C 1704.570312 624.027344 1695.429688 625.726562 1686.371094 627.566406 L 1687.070312 630.96875 C 1696.089844 629.128906 1705.191406 627.464844 1714.148438 625.9375 Z M 1906.371094 617.121094 L 1905.921875 620.554688 C 1915.050781 621.769531 1924.179688 623.226562 1933.070312 624.929688 L 1933.691406 621.527344 C 1924.769531 619.828125 1915.570312 618.335938 1906.371094 617.121094 Z M 1768.371094 615.28125 C 1759.308594 616.113281 1750.078125 617.191406 1740.878906 618.402344 L 1741.359375 621.839844 C 1750.488281 620.625 1759.691406 619.585938 1768.691406 618.714844 Z M 1851.238281 612.574219 L 1851.140625 616.042969 C 1860.371094 616.355469 1869.601562 616.878906 1878.601562 617.605469 L 1878.871094 614.171875 C 1869.808594 613.40625 1860.539062 612.886719 1851.238281 612.574219 Z M 1823.570312 612.296875 C 1814.511719 612.398438 1805.210938 612.710938 1795.941406 613.199219 L 1796.148438 616.667969 C 1805.351562 616.183594 1814.578125 615.871094 1823.640625 615.765625 L 1823.570312 612.296875 "/>
</clipPath>
<linearGradient id="linear-pattern-1" gradientUnits="userSpaceOnUse" x1="0.0110714" y1="0" x2="0.981814" y2="0" gradientTransform="matrix(1885.49, 0, 0, 1885.49, 187.539, 750.048)">
<stop offset="0" stop-color="rgb(45.207214%, 45.622253%, 46.258545%)" stop-opacity="1"/>
<stop offset="0.015625" stop-color="rgb(44.979858%, 45.484924%, 46.070862%)" stop-opacity="1"/>
<stop offset="0.03125" stop-color="rgb(44.532776%, 45.170593%, 45.747375%)" stop-opacity="1"/>
<stop offset="0.046875" stop-color="rgb(44.093323%, 44.781494%, 45.4422%)" stop-opacity="1"/>
<stop offset="0.0625" stop-color="rgb(43.661499%, 44.352722%, 45.059204%)" stop-opacity="1"/>
<stop offset="0.078125" stop-color="rgb(43.235779%, 43.930054%, 44.639587%)" stop-opacity="1"/>
<stop offset="0.09375" stop-color="rgb(42.871094%, 43.566895%, 44.277954%)" stop-opacity="1"/>
<stop offset="0.109375" stop-color="rgb(42.585754%, 43.280029%, 43.991089%)" stop-opacity="1"/>
<stop offset="0.125" stop-color="rgb(42.289734%, 42.980957%, 43.692017%)" stop-opacity="1"/>
<stop offset="0.132812" stop-color="rgb(42.088318%, 42.778015%, 43.486023%)" stop-opacity="1"/>
<stop offset="0.140625" stop-color="rgb(41.944885%, 42.630005%, 43.336487%)" stop-opacity="1"/>
<stop offset="0.148438" stop-color="rgb(41.696167%, 42.381287%, 43.086243%)" stop-opacity="1"/>
<stop offset="0.15625" stop-color="rgb(41.43219%, 42.115784%, 42.82074%)" stop-opacity="1"/>
<stop offset="0.171875" stop-color="rgb(41.133118%, 41.792297%, 42.514038%)" stop-opacity="1"/>
<stop offset="0.1875" stop-color="rgb(40.866089%, 41.418457%, 42.202759%)" stop-opacity="1"/>
<stop offset="0.195313" stop-color="rgb(40.667725%, 41.19873%, 41.992188%)" stop-opacity="1"/>
<stop offset="0.203125" stop-color="rgb(40.440369%, 41.081238%, 41.812134%)" stop-opacity="1"/>
<stop offset="0.210938" stop-color="rgb(40.184021%, 40.869141%, 41.572571%)" stop-opacity="1"/>
<stop offset="0.21875" stop-color="rgb(39.909363%, 40.594482%, 41.296387%)" stop-opacity="1"/>
<stop offset="0.234375" stop-color="rgb(39.576721%, 40.266418%, 40.969849%)" stop-opacity="1"/>
<stop offset="0.25" stop-color="rgb(39.303589%, 39.99176%, 40.693665%)" stop-opacity="1"/>
<stop offset="0.265625" stop-color="rgb(39.028931%, 39.715576%, 40.415955%)" stop-opacity="1"/>
<stop offset="0.273438" stop-color="rgb(38.75885%, 39.395142%, 40.124512%)" stop-opacity="1"/>
<stop offset="0.28125" stop-color="rgb(38.616943%, 39.135742%, 39.926147%)" stop-opacity="1"/>
<stop offset="0.289062" stop-color="rgb(38.4552%, 38.900757%, 39.729309%)" stop-opacity="1"/>
<stop offset="0.296875" stop-color="rgb(38.262939%, 38.699341%, 39.535522%)" stop-opacity="1"/>
<stop offset="0.3125" stop-color="rgb(38.070679%, 38.50708%, 39.263916%)" stop-opacity="1"/>
<stop offset="0.328125" stop-color="rgb(37.806702%, 38.244629%, 38.903809%)" stop-opacity="1"/>
<stop offset="0.335938" stop-color="rgb(37.515259%, 37.985229%, 38.632202%)" stop-opacity="1"/>
<stop offset="0.34375" stop-color="rgb(37.252808%, 37.811279%, 38.473511%)" stop-opacity="1"/>
<stop offset="0.351563" stop-color="rgb(36.987305%, 37.638855%, 38.316345%)" stop-opacity="1"/>
<stop offset="0.359375" stop-color="rgb(36.767578%, 37.45575%, 38.139343%)" stop-opacity="1"/>
<stop offset="0.375" stop-color="rgb(36.566162%, 37.179565%, 37.90741%)" stop-opacity="1"/>
<stop offset="0.390625" stop-color="rgb(36.31134%, 36.877441%, 37.631226%)" stop-opacity="1"/>
<stop offset="0.398438" stop-color="rgb(36.056519%, 36.700439%, 37.409973%)" stop-opacity="1"/>
<stop offset="0.40625" stop-color="rgb(35.818481%, 36.512756%, 37.191772%)" stop-opacity="1"/>
<stop offset="0.414063" stop-color="rgb(35.559082%, 36.253357%, 36.930847%)" stop-opacity="1"/>
<stop offset="0.421875" stop-color="rgb(35.403442%, 36.036682%, 36.746216%)" stop-opacity="1"/>
<stop offset="0.429688" stop-color="rgb(35.343933%, 35.862732%, 36.634827%)" stop-opacity="1"/>
<stop offset="0.4375" stop-color="rgb(35.18219%, 35.694885%, 36.46698%)" stop-opacity="1"/>
<stop offset="0.445313" stop-color="rgb(34.913635%, 35.531616%, 36.239624%)" stop-opacity="1"/>
<stop offset="0.453125" stop-color="rgb(34.733582%, 35.365295%, 36.05957%)" stop-opacity="1"/>
<stop offset="0.460938" stop-color="rgb(34.658813%, 35.194397%, 35.940552%)" stop-opacity="1"/>
<stop offset="0.46875" stop-color="rgb(34.518433%, 35.02655%, 35.784912%)" stop-opacity="1"/>
<stop offset="0.476563" stop-color="rgb(34.27124%, 34.863281%, 35.569763%)" stop-opacity="1"/>
<stop offset="0.484375" stop-color="rgb(34.072876%, 34.700012%, 35.380554%)" stop-opacity="1"/>
<stop offset="0.492188" stop-color="rgb(33.979797%, 34.53064%, 35.25238%)" stop-opacity="1"/>
<stop offset="0.5" stop-color="rgb(33.863831%, 34.336853%, 35.099792%)" stop-opacity="1"/>
<stop offset="0.507812" stop-color="rgb(33.650208%, 34.101868%, 34.873962%)" stop-opacity="1"/>
<stop offset="0.515625" stop-color="rgb(33.442688%, 33.869934%, 34.654236%)" stop-opacity="1"/>
<stop offset="0.53125" stop-color="rgb(33.277893%, 33.613586%, 34.44519%)" stop-opacity="1"/>
<stop offset="0.539062" stop-color="rgb(33.096313%, 33.421326%, 34.257507%)" stop-opacity="1"/>
<stop offset="0.546875" stop-color="rgb(32.911682%, 33.314514%, 34.106445%)" stop-opacity="1"/>
<stop offset="0.554687" stop-color="rgb(32.759094%, 33.128357%, 33.934021%)" stop-opacity="1"/>
<stop offset="0.5625" stop-color="rgb(32.624817%, 32.904053%, 33.750916%)" stop-opacity="1"/>
<stop offset="0.570312" stop-color="rgb(32.45697%, 32.76062%, 33.590698%)" stop-opacity="1"/>
<stop offset="0.578125" stop-color="rgb(32.269287%, 32.669067%, 33.439636%)" stop-opacity="1"/>
<stop offset="0.585938" stop-color="rgb(32.112122%, 32.501221%, 33.229065%)" stop-opacity="1"/>
<stop offset="0.59375" stop-color="rgb(31.985474%, 32.266235%, 32.969666%)" stop-opacity="1"/>
<stop offset="0.609375" stop-color="rgb(31.742859%, 31.976318%, 32.746887%)" stop-opacity="1"/>
<stop offset="0.617188" stop-color="rgb(31.437683%, 31.7276%, 32.548523%)" stop-opacity="1"/>
<stop offset="0.625" stop-color="rgb(31.182861%, 31.57196%, 32.333374%)" stop-opacity="1"/>
<stop offset="0.632813" stop-color="rgb(30.978394%, 31.384277%, 32.098389%)" stop-opacity="1"/>
<stop offset="0.640625" stop-color="rgb(30.844116%, 31.159973%, 31.845093%)" stop-opacity="1"/>
<stop offset="0.648438" stop-color="rgb(30.738831%, 30.986023%, 31.654358%)" stop-opacity="1"/>
<stop offset="0.65625" stop-color="rgb(30.662537%, 30.892944%, 31.55365%)" stop-opacity="1"/>
<stop offset="0.664063" stop-color="rgb(30.535889%, 30.764771%, 31.420898%)" stop-opacity="1"/>
<stop offset="0.671875" stop-color="rgb(30.323792%, 30.555725%, 31.208801%)" stop-opacity="1"/>
<stop offset="0.679688" stop-color="rgb(30.131531%, 30.36499%, 30.992126%)" stop-opacity="1"/>
<stop offset="0.6875" stop-color="rgb(30.024719%, 30.256653%, 30.822754%)" stop-opacity="1"/>
<stop offset="0.695312" stop-color="rgb(29.916382%, 30.148315%, 30.651855%)" stop-opacity="1"/>
<stop offset="0.703125" stop-color="rgb(29.722595%, 29.956055%, 30.435181%)" stop-opacity="1"/>
<stop offset="0.710938" stop-color="rgb(29.515076%, 29.750061%, 30.227661%)" stop-opacity="1"/>
<stop offset="0.71875" stop-color="rgb(29.393005%, 29.626465%, 30.099487%)" stop-opacity="1"/>
<stop offset="0.726563" stop-color="rgb(29.299927%, 29.53186%, 30.010986%)" stop-opacity="1"/>
<stop offset="0.734375" stop-color="rgb(29.122925%, 29.354858%, 29.878235%)" stop-opacity="1"/>
<stop offset="0.742188" stop-color="rgb(28.894043%, 29.129028%, 29.705811%)" stop-opacity="1"/>
<stop offset="0.75" stop-color="rgb(28.717041%, 28.948975%, 29.507446%)" stop-opacity="1"/>
<stop offset="0.757813" stop-color="rgb(28.579712%, 28.807068%, 29.290771%)" stop-opacity="1"/>
<stop offset="0.765625" stop-color="rgb(28.427124%, 28.65448%, 29.141235%)" stop-opacity="1"/>
<stop offset="0.773438" stop-color="rgb(28.259277%, 28.494263%, 29.052734%)" stop-opacity="1"/>
<stop offset="0.78125" stop-color="rgb(28.114319%, 28.302002%, 28.919983%)" stop-opacity="1"/>
<stop offset="0.789063" stop-color="rgb(27.990723%, 28.079224%, 28.742981%)" stop-opacity="1"/>
<stop offset="0.796875" stop-color="rgb(27.850342%, 27.886963%, 28.575134%)" stop-opacity="1"/>
<stop offset="0.804688" stop-color="rgb(27.687073%, 27.728271%, 28.417969%)" stop-opacity="1"/>
<stop offset="0.8125" stop-color="rgb(27.534485%, 27.577209%, 28.263855%)" stop-opacity="1"/>
<stop offset="0.820312" stop-color="rgb(27.397156%, 27.435303%, 28.111267%)" stop-opacity="1"/>
<stop offset="0.828125" stop-color="rgb(27.267456%, 27.26593%, 27.928162%)" stop-opacity="1"/>
<stop offset="0.835938" stop-color="rgb(27.142334%, 27.059937%, 27.69928%)" stop-opacity="1"/>
<stop offset="0.84375" stop-color="rgb(27.005005%, 26.885986%, 27.514648%)" stop-opacity="1"/>
<stop offset="0.851562" stop-color="rgb(26.84021%, 26.782227%, 27.416992%)" stop-opacity="1"/>
<stop offset="0.859375" stop-color="rgb(26.679993%, 26.669312%, 27.325439%)" stop-opacity="1"/>
<stop offset="0.867188" stop-color="rgb(26.545715%, 26.48468%, 27.175903%)" stop-opacity="1"/>
<stop offset="0.875" stop-color="rgb(26.420593%, 26.28479%, 26.992798%)" stop-opacity="1"/>
<stop offset="0.882813" stop-color="rgb(26.290894%, 26.124573%, 26.791382%)" stop-opacity="1"/>
<stop offset="0.890625" stop-color="rgb(26.153564%, 25.984192%, 26.599121%)" stop-opacity="1"/>
<stop offset="0.898438" stop-color="rgb(26.002502%, 25.836182%, 26.470947%)" stop-opacity="1"/>
<stop offset="0.90625" stop-color="rgb(25.845337%, 25.686646%, 26.367188%)" stop-opacity="1"/>
<stop offset="0.914063" stop-color="rgb(25.70343%, 25.544739%, 26.202393%)" stop-opacity="1"/>
<stop offset="0.921875" stop-color="rgb(25.563049%, 25.401306%, 25.994873%)" stop-opacity="1"/>
<stop offset="0.929688" stop-color="rgb(25.378418%, 25.216675%, 25.811768%)" stop-opacity="1"/>
<stop offset="0.9375" stop-color="rgb(25.157166%, 25%, 25.650024%)" stop-opacity="1"/>
<stop offset="0.945312" stop-color="rgb(24.983215%, 24.82605%, 25.463867%)" stop-opacity="1"/>
<stop offset="0.953125" stop-color="rgb(24.85199%, 24.688721%, 25.253296%)" stop-opacity="1"/>
<stop offset="0.960938" stop-color="rgb(24.676514%, 24.514771%, 25.068665%)" stop-opacity="1"/>
<stop offset="0.96875" stop-color="rgb(24.456787%, 24.299622%, 24.908447%)" stop-opacity="1"/>
<stop offset="0.976562" stop-color="rgb(24.304199%, 24.150085%, 24.760437%)" stop-opacity="1"/>
<stop offset="0.984375" stop-color="rgb(24.230957%, 24.073792%, 24.62616%)" stop-opacity="1"/>
<stop offset="0.992187" stop-color="rgb(24.139404%, 23.979187%, 24.485779%)" stop-opacity="1"/>
<stop offset="1" stop-color="rgb(24.014282%, 23.849487%, 24.34082%)" stop-opacity="1"/>
</linearGradient>
</defs>

<path fill-rule="nonzero" fill="rgb(36.791992%, 37.457275%, 38.137817%)" fill-opacity="1" d="M 2291.589844 823.4375 L 2079.519531 709.886719 L 2151.589844 703.8125 Z M 2291.589844 823.4375 "/>
<path fill-rule="nonzero" fill="rgb(44.403076%, 45.051575%, 45.675659%)" fill-opacity="1" d="M 2291.589844 823.4375 L 2225.089844 720.738281 L 2170.859375 720.28125 Z M 2291.589844 823.4375 "/>
<path fill-rule="nonzero" fill="rgb(29.179382%, 29.498291%, 29.981995%)" fill-opacity="1" d="M 2128.289062 736 L 2124.570312 762.523438 L 2291.589844 823.4375 Z M 2128.289062 736 "/>
<g clip-path="url(#clip-0)">
<g clip-path="url(#clip-1)">
<g clip-path="url(#clip-2)">
<path fill-rule="nonzero" fill="url(#linear-pattern-0)" d="M 2061.058594 669.386719 L 2061.058594 680.140625 L 2074.449219 680.140625 L 2074.449219 669.386719 Z M 2061.058594 669.386719 "/>
</g>
</g>
</g>
<g clip-path="url(#clip-3)">
<g clip-path="url(#clip-4)">
<g clip-path="url(#clip-5)">
<path fill-rule="nonzero" fill="url(#linear-pattern-1)" d="M 208.414062 612.296875 L 208.414062 887.800781 L 2038.738281 887.800781 L 2038.738281 612.296875 Z M 208.414062 612.296875 "/>
</g>
</g>
</g>
</svg>
