<svg xmlns="http://www.w3.org/2000/svg" width="132" height="124" viewBox="0 0 132 124"><g><g><g><g><path fill="#2a3ab7" d="M131.1 111.656c0 6.34-5.118 11.46-11.46 11.46H99.983l-11.153-4.508-1.298 4.507H21.347l-.917-5.042-9.625 4.889c-5.73-.61-10.084-5.424-10.084-11.306 0-3.056.917-5.96 2.75-8.48l4.89-6.799H19.82V31.442h23.478c.612 3.744 2.14 7.104 4.278 9.931l5.271 7.028 2.292 3.056L65.91 65.82l9.855-13.064 1.3-1.757 7.18-9.626c2.215-2.827 3.666-6.265 4.278-9.93h23.478v64.934h11.46l4.889 6.8c1.833 2.52 2.75 5.423 2.75 8.48z"/></g><g><path fill="#0d1356" d="M112.001 71.167L77.37 105.545l22.613 17.57H87.531L65.91 106.31 50.477 94.314l-29.13 28.801-10.543-.153 33.561-33.384L19.82 70.632V65.82l2.369-2.98 5.882 4.584 22.026-21.772 5.425 5.424-.382.382L34.435 72.16 65.91 96.606l5.424 4.202L96.468 75.75 72.48 57.11l-.076-.077 3.361-4.278L77.064 51l24.828 19.25 7.435-7.103 2.674 2.674z"/></g><g><path fill="#c6e8f7" d="M23.64 16.163v84.034H12.18a11.443 11.443 0 0 0-11.46 11.46V31.441C.72 23.04 7.598 16.163 16 16.163z"/></g><g><path fill="#f3944b" d="M76.682 31.442c-1.528 4.43-5.806 7.64-10.772 7.64-4.965 0-9.243-3.21-10.771-7.64a10.606 10.606 0 0 1-.688-3.82c0-6.34 5.118-11.459 11.46-11.459 6.34 0 11.459 5.118 11.459 11.46 0 1.374-.23 2.597-.688 3.82zM65.91.885c-14.743 0-26.738 11.993-26.738 26.737 0 1.298.077 2.598.23 3.82.688 4.43 2.368 8.632 5.118 12.223L65.91 72.16 87.3 43.665c2.751-3.591 4.432-7.793 5.118-12.223.154-1.222.23-2.522.23-3.82C92.648 12.878 80.654.885 65.91.885z"/></g><g><path fill="#c6e8f7" d="M108.182 16.163v84.034h11.459c6.342 0 11.459 5.118 11.459 11.46V31.441c0-8.403-6.875-15.279-15.279-15.279z"/></g></g></g></g></svg>