<svg xmlns="http://www.w3.org/2000/svg" width="154" height="158" viewBox="0 0 154 158"><g><g><g><g><path fill="#2a3ab7" d="M65.367 108.893l6.324-89.43h74.09l5.502 89.43z"/></g><g><path fill="#c6e8f7" d="M84.921 157.06L79.63 59.154H5.54L.247 157.06z"/></g><g><path fill="#ffba40" d="M79.63 157.06v-37.046h68.798v37.046z"/></g><g><path fill="#f3944b" d="M74.337 120.014v-15.876h79.383v15.876z"/></g><g><g><g><path fill="#ffba40" d="M132.551 30.047a2.646 2.646 0 0 1-2.646-2.646c0-11.69-9.477-21.168-21.169-21.168-11.69 0-21.168 9.477-21.168 21.168a2.646 2.646 0 0 1-5.293 0c0-14.614 11.848-26.46 26.461-26.46 14.615 0 26.461 11.846 26.461 26.46a2.646 2.646 0 0 1-2.646 2.646z"/></g><g><path fill="#ffba40" d="M87.567 35.34a2.646 2.646 0 1 1-5.292 0 2.646 2.646 0 0 1 5.292 0zm5.293 0a7.939 7.939 0 1 0-15.878 0 7.939 7.939 0 0 0 15.878 0z"/></g><g><path fill="#ffba40" d="M135.197 35.34a2.646 2.646 0 1 1-5.292-.001 2.646 2.646 0 0 1 5.292 0zm5.293 0a7.939 7.939 0 1 0-15.878 0 7.939 7.939 0 0 0 15.878 0z"/></g><g><g><g><path fill="#0d1356" d="M66.399 69.738a2.646 2.646 0 0 1-2.646-2.646c0-11.69-9.477-21.168-21.17-21.168-11.69 0-21.168 9.478-21.168 21.168a2.646 2.646 0 1 1-5.291 0c0-14.613 11.846-26.46 26.46-26.46s26.46 11.847 26.46 26.46a2.646 2.646 0 0 1-2.645 2.646z"/></g><g><path fill="#0d1356" d="M21.415 75.031a2.646 2.646 0 1 1-5.292 0 2.646 2.646 0 0 1 5.292 0zm5.293 0a7.939 7.939 0 1 0-15.878 0 7.939 7.939 0 0 0 15.878 0z"/></g><g><path fill="#0d1356" d="M69.045 75.031a2.646 2.646 0 1 1-5.293 0 2.646 2.646 0 0 1 5.293 0zm5.292 0a7.939 7.939 0 1 0-15.877 0 7.939 7.939 0 0 0 15.877 0z"/></g></g></g></g></g></g></g></g></svg>