<svg xmlns="http://www.w3.org/2000/svg" width="128" height="140" viewBox="0 0 128 140"><g><g><g><g><path fill="#ffab00" d="M71.347 93.361L17.55 76.243V17.554L71.347.436l53.799 17.118v58.69z"/></g><g><path fill="#ffba40" d="M71.347 93.361V34.672l53.798-17.118v58.69z"/></g><g><path fill="#f3944b" d="M71.347 34.672L17.55 17.554 71.347.436l53.799 17.118z"/></g><g><path fill="#2a3ab7" d="M36.297 11.59l53.799 17.117V48.27l5.705-1.814 7.336-2.335 4.483-1.426V23.13L53.82 6.012z"/></g><g><path fill="#5e76dd" d="M90.096 28.708V48.27l5.705-1.815 7.336-2.335 4.482-1.426V23.13z"/></g><g><path fill="#2a3ab7" d="M15.103 132.487V98.252h19.563v34.235z"/></g><g><path fill="#0d1356" d="M.43 130.042v-29.345h14.673v29.345z"/></g><g><path fill="#f2c09a" d="M34.666 127.892l21.625 8.98a39.956 39.956 0 0 0 29.325.323l37.777-14.404a6.604 6.604 0 0 0 3.753-8.55l-.02-.048a6.431 6.431 0 0 0-8.49-3.629l-20.445 8.68c-1.13.46-2.32.752-3.532.87a6.114 6.114 0 0 0-1.303-12.08H74.387c-2.3-.001-4.566-.536-6.622-1.563a54.665 54.665 0 0 0-24.454-5.774h-8.645v27.195z"/></g><g><g><path fill="#e9937c" d="M67.774 106.456a14.805 14.805 0 0 0 6.62 1.563h18.962a6.114 6.114 0 0 1 6.113 6.113 6.05 6.05 0 0 1-.524 2.428 6.111 6.111 0 0 0-5.59-3.65h-18.96c-2.298 0-4.565-.536-6.62-1.563a54.668 54.668 0 0 0-24.455-5.774h-8.654v-4.89h8.652c8.49-.001 16.863 1.976 24.456 5.773z"/></g><g><path fill="#e9937c" d="M127.134 114.176a6.625 6.625 0 0 1-.015 4.874 6.43 6.43 0 0 0-8.475-3.598L98.2 124.134a12.75 12.75 0 0 1-4.987 1.017H64.011v-4.905h29.202c1.714 0 3.41-.345 4.987-1.015l20.444-8.681a6.428 6.428 0 0 1 8.49 3.626z"/></g></g><g><g><path fill="#db7631" d="M27.33 71.353a2.445 2.445 0 0 1-2.445-2.445V61.57a2.445 2.445 0 0 1 4.89 0v7.337a2.445 2.445 0 0 1-2.445 2.445z"/></g><g><path fill="#db7631" d="M37.112 73.798a2.445 2.445 0 0 1-2.446-2.446v-7.336a2.445 2.445 0 1 1 4.89 0v7.336a2.445 2.445 0 0 1-2.444 2.446z"/></g></g></g></g></g></svg>