<svg xmlns="http://www.w3.org/2000/svg" width="222" height="55" viewBox="0 0 222 55"><g><g><g><g><g><path fill="#fff" d="M12.748 24.053h17.154c.012 0 2.118-.621 2.118 3.25 0 3.734-2.039 3.329-2.062 3.329H18.235l-1.61 13.197 6.36-.055.89-6.568h7.236c4.64 0 6.306-4.333 6.306-6.574 0-.692.777-4.18.777-6.579 0-5.61-4.54-6.643-5.472-6.643l-31.895.012z"/></g><g><path fill="#fff" d="M12.627 46.914c-1.88 0-2.45-1.874-2.379-2.344.028-.186 2.626-20.528 2.626-20.528L.817 17.398 0 24.042h6.534s-2.67 22.239-2.738 22.862c-.384 3.504 2.642 6.662 6.247 6.662 3.844 0 63.793.027 63.793.027s.43 0 0 0c-.998 0-4.356-4.319-4.356-6.616 0 0-54.85-.063-56.853-.063z"/></g><g><path fill="#fff" d="M35.893 43.855l-2.835-6.941-6.265.172 2.707 6.77z"/></g><g><path fill="#fff" d="M57.546 24.01l.824-6.598h-5.1l-2.054 6.599z"/></g><g/><g><path fill="#fff" d="M32.609 43.855s13.756-22.59 14.138-23.259c.408-.71 2.068-3.183 5.15-3.183.741 0 3.171.022 3.171.022l-16.023 26.42z"/></g><g><path fill="#fff" d="M48.672 43.855h6.437l1.639-13.229h-12.7l-1.395 6.614h6.758z"/></g><g><path fill="#fff" d="M61.482 17.435l-3.3 26.42h6.416l2.56-18.745 5.492 6.615s-1.559 11.502-1.637 12.13c-.615 4.923 3.767 10.285 9.222 10.285 8.084 0 9.983-7.264 9.577-10.285-.001-.012.263.28-.148-1.669-.032-.155-3.444-14.116-3.61-14.733-.081-.311-.108-.935-.108-1.058 0-1.333 1.305-3.039 3.193-3.039 1.493 0 3.603-.027 3.603-.027l.8-6.63h-4.583c-5.784 0-9.112 5.572-9.112 9.103 0 .263.266 2.777.074 1.473-.047-.321 3.693 16.047 3.725 16.238.06.383.105.739.097.828-.134 1.66-1.216 3.18-3.417 3.207-1.074.014-3.048-1.083-3.048-3.331 0-.667 1.74-14.146 1.74-14.11 0 .074 1.51-10.775 1.456-10.775l.237-1.922-6.327.025-.798 6.576-5.622-6.576z"/></g><g><path fill="#fff" d="M92.19 27.308h5.612l-.775 6.619h-5.71z"/></g><g/><g><path fill="#fff" d="M122.718 38.571l2.367 5.233 5.898-.018-3.5-12.017 7.693-14.359h-3.018c-2.93 0-4.653 2.01-5.07 2.764-.376.681-3.155 5.257-3.155 5.257s-.586-2.689-.886-3.454c-.208-.533-1.515-4.564-5.957-4.567h-17.006l-.757 6.508 17.963.076s2.249 8.64 2.324 8.64c.03 0-2.854 4.67-2.854 4.594 0 .077-12.654.077-12.654.077l.402-3.384h9.245l.834-6.618s-9.658-.02-10.313-.02c-4.474 0-6.076 3.965-6.076 5.323 0 .208-1.425 11.18-1.425 11.18l21.884.075z"/></g><g><path fill="#fff" d="M127.9 24.053h17.154c.013 0 2.177-.647 2.082 3.222-.084 3.512-2.394 3.386-2.418 3.386-.555 0-8.4-.03-8.4-.03l-1.611 13.198 6.36-.055.89-6.568h4.307c4.64 0 6.307-4.22 6.307-6.46 0-.693 1.027-4.342 1.027-6.742 0-5.442-4.792-6.594-5.725-6.594l-14.996.003z"/></g><g><path fill="#fff" d="M154.07 24.07s9.87-.017 10.75-.017c.012 0 2.12-.621 2.12 3.25 0 3.734-2.04 3.329-2.063 3.329h-11.724l-1.61 13.197 6.361-.055.888-6.568h7.237c4.64 0 6.305-4.333 6.305-6.574 0-.692 1.03-4.228 1.03-6.628 0-5.442-4.792-6.594-5.724-6.594l-12.64.017z"/></g><g><path fill="#fff" d="M193.326 37.311c0 .075-12.784-.006-12.784-.006l.4-3.384h9.613l.832-6.618h-10.62c-5.528 0-6.187 5.83-6.157 5.49.029-.336-1.4 10.993-1.4 10.993h19.359z"/></g><g><path fill="#fff" d="M195.784 17.41h-19.265l-.756 6.508h19.162s.859-6.474.859-6.508z"/></g><g><path fill="#fff" d="M186.941 38.018s-.754 5.919-.833 6.548c-.615 4.922 3.77 10.285 9.224 10.285 8.084 0 10.93-7.744 9.223-12.468-1.394-4.921-3.813-12.475-3.511-15.278.142-1.324 1.303-3.037 3.19-3.037 1.495 0 3.636-.022 3.636-.022l.896-6.633s-1.542-.003-4.712-.003c-5.783 0-9.111 5.572-9.111 9.103 0 .398.006.566.11 1.601.085.853 3.656 14.654 3.738 16.815.073 1.964-1.17 3.305-3.37 3.331-1.072.012-3.01-1.082-3.01-3.33 0-1.496.921-7.619.921-7.619z"/></g><g><path fill="#fff" d="M199.022 44.566c-.616 4.922 3.767 10.285 9.223 10.285 8.084 0 10.185-7.286 9.697-10.247-.002-.02-.11-.815-.213-1.368-.13-.682-4.083-13.328-3.773-16.13.148-1.325 1.304-3.038 3.191-3.038 1.494 0 3.605-.029 3.605-.029l.799-6.629h-4.586c-5.78 0-9.109 5.572-9.109 9.103 0 .28.03 1.34.099 1.816.17 1.194 3.706 15.201 3.742 16.516.044 1.665-1.162 3.389-3.362 3.415-1.074.012-3.281-1.054-3.281-3.301 0-1.496-5.954-1.022-6.032-.393z"/></g><g><path fill="#fff" d="M87.175 53.582c.705 0 4.232-3.915 4.232-6.695H184.41s.235 1.381.431 1.93c.197.55.874 2.03 1.334 2.736.46.705 1.405 1.873 1.68 2.03H87.175z"/></g><g><path fill="#fff" d="M170.702 43.917l-2.834-6.94-6.263.173 2.705 6.767z"/></g></g></g><g><path fill="#fff" d="M38.782 5.714V4.408h3.372v3.087c-.328.317-.802.596-1.425.838a5.186 5.186 0 0 1-1.889.362c-.81 0-1.517-.17-2.12-.51a3.24 3.24 0 0 1-1.357-1.46 4.714 4.714 0 0 1-.455-2.063c0-.807.17-1.524.508-2.151A3.418 3.418 0 0 1 36.9 1.067c.497-.256 1.116-.385 1.856-.385.962 0 1.713.202 2.254.605.54.404.888.961 1.043 1.673L40.5 3.25a1.638 1.638 0 0 0-.616-.901c-.301-.22-.677-.33-1.128-.33-.684 0-1.228.216-1.63.649-.404.434-.606 1.077-.606 1.93 0 .92.205 1.61.613 2.068.409.46.944.69 1.607.69.327 0 .655-.064.986-.193.329-.128.611-.284.848-.467v-.983z"/></g><g><path fill="#fff" d="M43.586 8.562V.814h1.485v7.748z"/></g><g><path fill="#fff" d="M48.168 4.477c.264-.296.591-.444.979-.444.387 0 .711.148.974.444.262.296.395.719.395 1.268 0 .564-.133.994-.395 1.29a1.252 1.252 0 0 1-.974.444c-.388 0-.715-.149-.979-.444-.265-.296-.396-.723-.396-1.28 0-.556.131-.982.396-1.278zm-1.918 1.2c0 .644.121 1.192.365 1.64.243.45.598.79 1.065 1.023.466.233.957.349 1.471.349.832 0 1.521-.28 2.069-.837.55-.56.822-1.263.822-2.112 0-.842-.271-1.539-.813-2.09-.543-.552-1.238-.828-2.088-.828-.55 0-1.048.122-1.493.365a2.5 2.5 0 0 0-1.033 1.057c-.244.462-.365.94-.365 1.432z"/></g><g><path fill="#fff" d="M54.615 5.634c0-.564.118-.984.354-1.26.238-.277.533-.415.889-.415.363 0 .66.142.893.425.234.284.35.746.35 1.388 0 .602-.116 1.044-.347 1.324-.23.28-.51.42-.838.42-.426 0-.768-.198-1.025-.592-.184-.279-.276-.709-.276-1.29zm-.094 2.928v-.825c.226.314.494.551.806.711.313.16.628.24.949.24.652 0 1.206-.258 1.662-.776.456-.518.684-1.256.684-2.215 0-.926-.223-1.637-.672-2.132-.447-.495-1.012-.743-1.695-.743-.628 0-1.17.262-1.628.783V.815h-1.486v7.747z"/></g><g><path fill="#fff" d="M62.914 6.162c0 .357-.02.598-.06.725a.917.917 0 0 1-.353.491 1.281 1.281 0 0 1-.766.264.806.806 0 0 1-.591-.227.725.725 0 0 1-.234-.539c0-.211.097-.386.29-.523.128-.084.398-.17.81-.26a9.26 9.26 0 0 0 .904-.226zm-1.987-1.5c.091-.261.21-.443.36-.547.147-.104.353-.156.617-.156.392 0 .658.061.799.182.14.122.21.325.21.61V4.9c-.267.112-.748.234-1.442.364-.515.099-.908.214-1.182.346a1.472 1.472 0 0 0-.636.572c-.152.247-.228.53-.228.847 0 .48.167.876.5 1.19.333.313.788.47 1.366.47.328 0 .636-.062.925-.185.289-.123.56-.309.813-.555.012.028.03.087.054.174.057.194.104.34.142.44h1.47a3.173 3.173 0 0 1-.267-.754c-.048-.234-.072-.598-.072-1.091l.016-1.734c0-.644-.066-1.088-.198-1.33-.132-.24-.36-.439-.684-.596-.325-.157-.818-.235-1.48-.235-.73 0-1.279.13-1.65.391-.369.26-.63.662-.78 1.205l1.347.243z"/></g><g><path fill="#fff" d="M65.836 8.562V.814h1.486v7.748z"/></g><g><path fill="#fff" d="M72.967 5.275c-.004-.405.1-.726.311-.962a1.03 1.03 0 0 1 .803-.354c.303 0 .56.112.771.336.213.223.324.55.334.98zm2.134 1.5c-.082.283-.201.487-.359.614a.905.905 0 0 1-.587.19c-.34 0-.628-.122-.856-.367-.23-.245-.349-.588-.359-1.028h3.72c.021-1.138-.209-1.983-.692-2.534-.483-.552-1.142-.827-1.977-.827-.743 0-1.357.262-1.844.79-.487.527-.73 1.255-.73 2.185 0 .78.186 1.423.555 1.935.47.637 1.192.956 2.167.956.616 0 1.13-.142 1.541-.425.41-.284.71-.697.9-1.24l-1.479-.248z"/></g><g><path fill="#fff" d="M77.702 6.496V5.01h2.916v1.486z"/></g><g><path fill="#fff" d="M86.443 5.714l1.517.481c-.233.845-.62 1.473-1.161 1.884-.54.41-1.227.616-2.058.616-1.028 0-1.874-.352-2.537-1.055-.662-.703-.993-1.664-.993-2.883 0-1.29.333-2.291.998-3.005.667-.713 1.541-1.07 2.627-1.07.949 0 1.719.28 2.31.84.351.332.616.807.792 1.428l-1.549.37a1.643 1.643 0 0 0-.573-.952c-.291-.233-.643-.349-1.06-.349-.574 0-1.038.207-1.397.619-.358.411-.536 1.08-.536 2.003 0 .98.176 1.677.528 2.092.352.416.81.624 1.375.624.414 0 .773-.132 1.072-.396.3-.264.515-.68.645-1.247z"/></g><g><path fill="#fff" d="M90.866 4.477a1.26 1.26 0 0 1 .979-.444c.386 0 .712.148.974.444.262.296.395.719.395 1.268 0 .564-.133.994-.395 1.29a1.253 1.253 0 0 1-.974.444c-.388 0-.715-.149-.98-.444-.263-.296-.395-.723-.395-1.28 0-.556.132-.982.396-1.278zm-1.918 1.2c0 .644.122 1.192.365 1.64.243.45.598.79 1.065 1.023.466.233.957.349 1.47.349.834 0 1.523-.28 2.07-.837.548-.56.822-1.263.822-2.112 0-.842-.272-1.539-.814-2.09-.543-.552-1.239-.828-2.087-.828-.55 0-1.048.122-1.493.365-.446.244-.79.595-1.033 1.057a3.04 3.04 0 0 0-.365 1.432z"/></g><g><path fill="#fff" d="M95.791 2.95h1.369v.766c.49-.596 1.075-.893 1.751-.893.36 0 .671.073.935.222.264.148.48.372.65.67.246-.298.512-.522.797-.67.287-.149.59-.222.914-.222.413 0 .762.083 1.048.25.285.168.498.414.638.738.103.24.154.628.154 1.163v3.588h-1.484V5.354c0-.556-.052-.915-.154-1.078-.137-.211-.348-.317-.635-.317-.208 0-.403.063-.586.19a1.053 1.053 0 0 0-.397.557c-.08.246-.121.632-.121 1.16v2.696h-1.485V5.487c0-.546-.027-.9-.08-1.057a.672.672 0 0 0-.245-.355c-.112-.077-.261-.116-.453-.116-.228 0-.434.062-.618.185a1.013 1.013 0 0 0-.393.534c-.079.233-.119.618-.119 1.157v2.727h-1.486z"/></g><g><path fill="#fff" d="M105.416 2.95h1.369v.766c.49-.596 1.072-.893 1.749-.893.36 0 .67.073.935.222.265.148.48.372.65.67a2.6 2.6 0 0 1 .8-.67 1.95 1.95 0 0 1 .913-.222c.413 0 .761.083 1.047.25.286.168.499.414.639.738.103.24.154.628.154 1.163v3.588h-1.487V5.354c0-.556-.05-.915-.152-1.078-.138-.211-.35-.317-.634-.317-.208 0-.403.063-.587.19a1.06 1.06 0 0 0-.396.557c-.082.246-.122.632-.122 1.16v2.696h-1.485V5.487c0-.546-.026-.9-.08-1.057a.67.67 0 0 0-.246-.355c-.11-.077-.26-.116-.451-.116-.228 0-.436.062-.618.185a1.018 1.018 0 0 0-.395.534c-.078.233-.118.618-.118 1.157v2.727h-1.485z"/></g><g><path fill="#fff" d="M116.267 5.275c-.004-.405.099-.726.312-.962.21-.236.479-.354.802-.354.305 0 .56.112.772.336.211.223.323.55.333.98zm2.135 1.5c-.082.283-.201.487-.36.614a.911.911 0 0 1-.587.19c-.342 0-.626-.122-.855-.367-.23-.245-.35-.588-.36-1.028h3.72c.022-1.138-.208-1.983-.691-2.534-.483-.552-1.142-.827-1.977-.827-.743 0-1.36.262-1.844.79-.487.527-.73 1.255-.73 2.185 0 .78.185 1.423.555 1.935.468.637 1.19.956 2.167.956.617 0 1.13-.142 1.54-.425.411-.284.71-.697.9-1.24l-1.478-.248z"/></g><g><path fill="#fff" d="M122.592 8.562h-1.485V2.95h1.38v.797c.236-.376.448-.625.636-.745s.404-.18.644-.18c.338 0 .663.094.977.28l-.46 1.295c-.251-.161-.483-.243-.698-.243a.83.83 0 0 0-.529.172c-.144.115-.257.322-.34.621-.082.3-.125.927-.125 1.881z"/></g><g><path fill="#fff" d="M130.278 4.61l-1.465.263c-.049-.292-.162-.512-.335-.66-.174-.148-.402-.222-.68-.222-.37 0-.664.127-.885.382-.22.256-.331.683-.331 1.283 0 .665.113 1.136.335 1.41.224.275.526.413.903.413.28 0 .512-.08.692-.24.18-.161.305-.437.38-.828l1.46.249c-.154.669-.444 1.175-.873 1.516-.43.342-1.006.513-1.729.513-.82 0-1.476-.259-1.962-.777-.489-.518-.733-1.235-.733-2.15 0-.927.245-1.649.734-2.165.49-.516 1.153-.775 1.988-.775.683 0 1.227.147 1.63.442.404.294.693.743.87 1.346z"/></g><g><path fill="#fff" d="M132.518 5.275c-.003-.405.1-.726.312-.962.211-.236.48-.354.803-.354.303 0 .56.112.772.336.21.223.322.55.333.98zm2.136 1.5c-.082.283-.201.487-.36.614a.911.911 0 0 1-.586.19 1.12 1.12 0 0 1-.856-.367c-.23-.245-.35-.588-.36-1.028h3.72c.021-1.138-.21-1.983-.691-2.534-.484-.552-1.143-.827-1.977-.827-.744 0-1.36.262-1.844.79-.487.527-.73 1.255-.73 2.185 0 .78.183 1.423.554 1.935.468.637 1.19.956 2.168.956.616 0 1.13-.142 1.54-.425.41-.284.71-.697.9-1.24l-1.478-.248z"/></g><g><path fill="#fff" d="M140.482 8.562V.877h1.564v6.38h3.89v1.305z"/></g><g><path fill="#fff" d="M148.616 4.477c.264-.296.59-.444.977-.444.388 0 .714.148.977.444.262.296.392.719.392 1.268 0 .564-.13.994-.392 1.29-.263.295-.59.444-.977.444a1.26 1.26 0 0 1-.977-.444c-.265-.296-.397-.723-.397-1.28 0-.556.132-.982.397-1.278zm-1.918 1.2c0 .644.122 1.192.364 1.64.243.45.6.79 1.065 1.023.467.233.957.349 1.472.349.83 0 1.522-.28 2.07-.837.548-.56.82-1.263.82-2.112 0-.842-.27-1.539-.813-2.09-.543-.552-1.238-.828-2.088-.828-.55 0-1.047.122-1.491.365a2.499 2.499 0 0 0-1.035 1.057c-.242.462-.364.94-.364 1.432z"/></g><g><path fill="#fff" d="M154.841 5.64c0-.568.116-.99.347-1.267.231-.276.524-.414.88-.414.366 0 .669.14.909.423.24.282.36.713.36 1.294 0 .557-.127.977-.376 1.261-.25.283-.557.426-.92.426-.338 0-.622-.139-.853-.416-.231-.276-.347-.712-.347-1.307zm-1.327 3.292a3.61 3.61 0 0 0-.005.18c0 .5.2.913.598 1.24.398.325 1.072.488 2.024.488.503 0 .92-.053 1.25-.158.33-.107.593-.253.79-.44.197-.186.351-.443.459-.77.11-.329.164-.823.164-1.485V2.95h-1.39v.787c-.45-.61-1.023-.914-1.716-.914-.674 0-1.236.249-1.689.745-.453.497-.68 1.215-.68 2.156 0 .75.173 1.377.519 1.882.439.637 1.037.956 1.79.956.677 0 1.238-.303 1.681-.91v.82c0 .332-.023.559-.068.682a.712.712 0 0 1-.297.375c-.193.117-.484.175-.87.175-.305 0-.526-.053-.667-.159-.102-.074-.168-.21-.195-.406l-1.698-.207z"/></g><g><path fill="#fff" d="M160.263 8.562V2.95h1.487v5.612zm0-6.374V.814h1.487v1.374z"/></g><g><path fill="#fff" d="M162.748 6.961l1.49-.228c.063.29.192.509.387.658.193.15.464.225.813.225.383 0 .673-.07.867-.212a.47.47 0 0 0 .195-.395.391.391 0 0 0-.106-.281c-.073-.07-.24-.135-.496-.195-1.198-.264-1.958-.506-2.278-.724a1.446 1.446 0 0 1-.666-1.263c0-.487.192-.896.576-1.226.384-.332.98-.498 1.786-.498.769 0 1.34.126 1.713.376.372.25.63.62.772 1.11l-1.401.258a.862.862 0 0 0-.341-.501c-.167-.117-.406-.175-.716-.175-.392 0-.672.055-.84.164a.352.352 0 0 0-.17.302c0 .105.05.195.149.269.133.098.597.238 1.387.418.791.18 1.343.4 1.657.66.31.265.465.633.465 1.105 0 .514-.215.956-.645 1.326-.43.37-1.067.555-1.908.555-.765 0-1.369-.155-1.815-.465a2.145 2.145 0 0 1-.875-1.263z"/></g><g><path fill="#fff" d="M171.865 2.95v1.183h-1.015v2.262c0 .458.01.726.03.8.02.077.063.139.131.189.07.05.153.074.252.074.136 0 .335-.047.597-.143l.127 1.152a2.977 2.977 0 0 1-1.174.222c-.267 0-.509-.044-.724-.135-.214-.09-.372-.206-.472-.349a1.37 1.37 0 0 1-.21-.578c-.032-.173-.048-.522-.048-1.046V4.133h-.682V2.95h.682V1.834l1.491-.866V2.95z"/></g><g><path fill="#fff" d="M172.895 8.562V2.95h1.486v5.612zm0-6.374V.814h1.486v1.374z"/></g><g><path fill="#fff" d="M180.797 4.61l-1.464.263c-.05-.292-.16-.512-.335-.66-.175-.148-.401-.222-.68-.222-.369 0-.664.127-.884.382-.221.256-.331.683-.331 1.283 0 .665.112 1.136.336 1.41.225.275.522.413.9.413.283 0 .512-.08.693-.24.179-.161.306-.437.38-.828l1.458.249c-.151.669-.441 1.175-.872 1.516-.43.342-1.006.513-1.728.513-.82 0-1.474-.259-1.961-.777-.49-.518-.734-1.235-.734-2.15 0-.927.245-1.649.735-2.165s1.152-.775 1.986-.775c.685 0 1.228.147 1.632.442.403.294.693.743.869 1.346z"/></g><g><path fill="#fff" d="M181.399 6.961l1.49-.228c.064.29.192.509.386.658.194.15.466.225.813.225.385 0 .674-.07.868-.212a.47.47 0 0 0 .195-.395.386.386 0 0 0-.106-.281c-.073-.07-.24-.135-.496-.195-1.198-.264-1.957-.506-2.277-.724a1.444 1.444 0 0 1-.666-1.263c0-.487.192-.896.575-1.226.385-.332.98-.498 1.786-.498.768 0 1.34.126 1.713.376s.631.62.77 1.11l-1.4.258a.851.851 0 0 0-.34-.501c-.167-.117-.406-.175-.716-.175-.39 0-.672.055-.841.164a.353.353 0 0 0-.169.302c0 .105.05.195.148.269.134.098.598.238 1.388.418.792.18 1.343.4 1.657.66.31.265.465.633.465 1.105 0 .514-.215.956-.645 1.326-.43.37-1.066.555-1.909.555-.763 0-1.368-.155-1.813-.465a2.138 2.138 0 0 1-.876-1.263z"/></g></g></g></svg>